Coordinates
version=1
nRows=6
nColumns=36
inDegrees=yes

Units are S.I. units (second, meters, Newtons, ...)
If the header above contains a line with 'inDegrees', this indicates whether rotational values are in degrees (yes) or radians (no).

endheader
time	pelvis_tilt	pelvis_list	pelvis_rotation	pelvis_tx	pelvis_ty	pelvis_tz	hip_flexion_r	hip_adduction_r	hip_rotation_r	knee_angle_r	knee_angle_r_beta	ankle_angle_r	subtalar_angle_r	mtp_angle_r	hip_flexion_l	hip_adduction_l	hip_rotation_l	knee_angle_l	knee_angle_l_beta	ankle_angle_l	subtalar_angle_l	mtp_angle_l	lumbar_extension	lumbar_bending	lumbar_rotation	arm_flex_r	arm_add_r	arm_rot_r	elbow_flex_r	pro_sup_r	arm_flex_l	arm_add_l	arm_rot_l	elbow_flex_l	pro_sup_l
      0.00000000	      3.90721330	      6.85465814	      7.09112673	     -0.14132103	      1.01622466	      0.11418460	     23.59255255	     -2.08863488	      9.95583697	     44.63846373	      0.77908817	      9.64965790	    -29.48002045	     -8.04678654	     16.52656772	      5.02222478	     -8.71569972	     29.99085655	      0.52343919	     14.65462362	     -8.32565998	     -8.04678654	    -25.39494750	     -2.07642861	     -1.03019877	     35.25155229	     -2.64833218	     34.45189237	     34.59062961	     87.38460112	     24.96104665	     -6.50353714	      5.93522696	     32.17349926	     77.25243050
      0.01666670	      1.92795192	      9.08003812	      5.94737440	     -0.14233104	      1.01737716	      0.11547469	     28.01521586	     -3.15585147	     12.11295814	     48.17238759	      0.84076677	     14.94223345	    -30.35934335	     -7.96257197	     19.27668546	      8.19625739	     -9.83686161	     32.39379617	      0.56537840	     17.67776323	     -9.00654958	     -7.96257197	    -24.03824381	     -4.01449117	     -0.27151467	     36.40015074	     -1.86729575	     34.09446205	     32.55173268	     87.05530559	     26.03019708	     -5.68365756	      2.64769983	     31.64326998	     75.85478804
      0.03333330	      0.93949731	      9.89108989	      5.40388368	     -0.14283564	      1.02365919	      0.11507836	     28.52522885	     -3.99273907	     11.94271186	     46.59352663	      0.81321045	     14.48238686	    -30.88840771	     -7.95861716	     19.23298799	      9.46940626	     -9.94595665	     30.27444918	      0.52838882	     17.36291428	     -8.95561577	     -7.95861716	    -23.23218667	     -4.80752067	      0.41614545	     36.67061159	     -1.96442656	     34.05960641	     32.03690830	     87.11335096	     25.98197139	     -5.21585165	      2.24545325	     30.94263588	     75.65941394
      0.05000000	      0.91589860	     10.61373819	      4.41688939	     -0.14113709	      1.01740179	      0.11776774	     28.83654143	     -4.17023250	     13.05447512	     46.63192043	      0.81388055	     14.31688282	    -31.82216295	     -7.95001130	     18.59588653	     10.09324685	    -10.31708630	     29.04540926	      0.50693802	     16.41050088	    -10.05929505	     -7.95001130	    -22.99947162	     -5.82274597	      1.71382954	     36.96678570	     -2.31181233	     33.72264427	     31.17633561	     87.19668972	     26.26513999	     -4.75724066	      0.68266204	     29.98172859	     75.06913863
      0.06666670	      0.70354342	     10.74172011	      4.09563897	     -0.14188123	      1.01722365	      0.11857087	     29.17551706	     -4.01545632	     13.47677792	     46.46860184	      0.81103010	     13.78055581	    -32.47345372	     -7.86618497	     18.82410704	     10.27120514	    -10.11556097	     28.73974455	      0.50160317	     15.47632091	    -11.38150342	     -7.86618497	    -22.98396323	     -5.97892015	      2.21289735	     36.52596056	     -2.33263178	     32.57843978	     30.25437045	     85.42372924	     25.70533121	     -4.01382559	     -2.09396186	     29.10922779	     72.82025562
      0.08333330	      0.91093821	     10.81188540	      3.63967625	     -0.14008243	      1.01861258	      0.12037117	     28.72617708	     -3.78725685	     13.66152531	     46.13805848	      0.80526103	     13.22246951	    -32.73026577	     -7.81286665	     18.61150760	     10.20088354	    -10.16048138	     28.48494209	      0.49715603	     14.50768115	    -11.66228606	     -7.81286665	    -23.27174051	     -6.29933440	      2.55857116	     35.36648291	     -2.30098794	     32.04497254	     29.53075661	     84.08888459	     24.35663466	     -3.80217203	     -2.77313742	     28.56753105	     71.72016108
